<svg xmlns="http://www.w3.org/2000/svg" xmlns:xlink="http://www.w3.org/1999/xlink" width="64" height="64" viewBox="0 0 64 64">
  <defs>
    <clipPath id="clip-path">
      <rect id="Rechteck_214" data-name="Rechteck 214" width="64" height="51.732" fill="none" stroke="#575656" stroke-width="1"/>
    </clipPath>
  </defs>
  <g id="nachrüstbar" transform="translate(-929 -5391)">
    <rect id="Rechteck_204" data-name="Rechteck 204" width="64" height="64" transform="translate(929 5391)" fill="none"/>
    <g id="Gruppe_182" data-name="Gruppe 182" transform="translate(929 5397.135)">
      <g id="Gruppe_181" data-name="Gruppe 181" transform="translate(0 0)" clip-path="url(#clip-path)">
        <circle id="Ellipse_2" data-name="Ellipse 2" cx="3.692" cy="3.692" r="3.692" transform="translate(28.308 38.193)" fill="none" stroke="#575656" stroke-linecap="round" stroke-miterlimit="10" stroke-width="2"/>
        <circle id="Ellipse_3" data-name="Ellipse 3" cx="3.692" cy="3.692" r="3.692" transform="translate(6.154 38.193)" fill="none" stroke="#575656" stroke-linecap="round" stroke-miterlimit="10" stroke-width="2"/>
        <circle id="Ellipse_4" data-name="Ellipse 4" cx="3.692" cy="3.692" r="3.692" transform="translate(50.462 38.193)" fill="none" stroke="#575656" stroke-linecap="round" stroke-miterlimit="10" stroke-width="2"/>
        <path id="Pfad_120" data-name="Pfad 120" d="M53.923,44.263H9.615a8.615,8.615,0,0,1,0-17.231H53.923a8.615,8.615,0,1,1,0,17.231Z" transform="translate(0.231 6.238)" fill="none" stroke="#575656" stroke-linecap="round" stroke-miterlimit="10" stroke-width="2"/>
        <path id="Rechteck_213" data-name="Rechteck 213" d="M1.946,0H20.209a1.945,1.945,0,0,1,1.945,1.945V20.208a1.946,1.946,0,0,1-1.946,1.946H1.946A1.946,1.946,0,0,1,0,20.208V1.946A1.946,1.946,0,0,1,1.946,0Z" transform="translate(38.154 6.193)" fill="none" stroke="#575656" stroke-linecap="round" stroke-miterlimit="10" stroke-width="2"/>
        <line id="Linie_118" data-name="Linie 118" x2="22.154" transform="translate(8.615 8.655)" fill="none" stroke="#575656" stroke-linecap="round" stroke-miterlimit="10" stroke-width="2"/>
        <line id="Linie_119" data-name="Linie 119" x2="27.077" transform="translate(3.692 13.578)" fill="none" stroke="#575656" stroke-linecap="round" stroke-miterlimit="10" stroke-width="2"/>
        <line id="Linie_120" data-name="Linie 120" x2="19.692" transform="translate(11.077 20.962)" fill="none" stroke="#575656" stroke-linecap="round" stroke-miterlimit="10" stroke-width="2"/>
        <line id="Linie_121" data-name="Linie 121" x2="44.308" transform="translate(9.846 38.193)" fill="none" stroke="#575656" stroke-linecap="round" stroke-miterlimit="10" stroke-width="2"/>
        <line id="Linie_122" data-name="Linie 122" x2="44.308" transform="translate(9.846 45.578)" fill="none" stroke="#575656" stroke-linecap="round" stroke-miterlimit="10" stroke-width="2"/>
      </g>
    </g>
  </g>
</svg>
