<svg xmlns="http://www.w3.org/2000/svg" width="40" height="40" viewBox="0 0 40 40">
  <g id="Händlersuche" transform="translate(-326.255 -8097)">
    <rect id="Rechteck_275" data-name="Rechteck 275" width="40" height="40" transform="translate(326.255 8097)" fill="none"/>
    <path id="Pfad_990" data-name="Pfad 990" d="M16.606,9.05A7.549,7.549,0,0,0,6.864,1.824a1.078,1.078,0,0,0-.45,1.795l4.774,4.772A3.238,3.238,0,0,1,8.4,11.179L3.625,6.407a1.078,1.078,0,0,0-1.795.45A7.549,7.549,0,0,0,9.7,16.571a3.811,3.811,0,0,1,3.32.912L23.3,29.971A4.742,4.742,0,1,0,29.979,23.3L17.492,13.013a3.817,3.817,0,0,1-.912-3.32Q16.606,9.372,16.606,9.05ZM27.941,26.844a1.078,1.078,0,0,0-1.078-1.078h-.012a1.078,1.078,0,0,0-1.078,1.078v.012a1.078,1.078,0,0,0,1.078,1.078h.012a1.078,1.078,0,0,0,1.078-1.078Z" transform="translate(329.527 8099.904)" fill="#2b2b30" fill-rule="evenodd"/>
  </g>
</svg>
