<svg xmlns="http://www.w3.org/2000/svg" width="239.999" height="49.226" viewBox="0 0 239.999 49.226">
  <g id="Icon_unlimited_dimensions" data-name="Icon_unlimited dimensions" transform="translate(-945.262 -2703.179)">
    <path id="Pfad_548" data-name="Pfad 548" d="M195.709,24.418l-8.266,27.066a5.424,5.424,0,0,1-5.182,3.834h-69.4a4.888,4.888,0,0,0-4.668,3.448L106.631,63.9A4.873,4.873,0,0,0,111.3,70.2h79.292a8.155,8.155,0,0,0,7.8-5.759l2.783-9.122,8.458-27.666a5.149,5.149,0,0,0-4.925-6.659h-4.3a4.888,4.888,0,0,0-4.668,3.448Z" transform="translate(975.407 2682.205)" fill="#cb152f"/>
    <path id="Pfad_549" data-name="Pfad 549" d="M39.532,66.761,47.8,39.695a5.424,5.424,0,0,1,5.182-3.834h69.4a4.888,4.888,0,0,0,4.668-3.448l1.563-5.138a4.873,4.873,0,0,0-4.668-6.295H44.67a8.151,8.151,0,0,0-7.794,5.759l-2.783,9.122L25.635,63.527a5.148,5.148,0,0,0,4.924,6.659h4.3a4.888,4.888,0,0,0,4.668-3.448Z" transform="translate(919.853 2682.199)" fill="#cb152f"/>
    <path id="Pfad_550" data-name="Pfad 550" d="M218.7,20.992H139.4a8.151,8.151,0,0,0-7.794,5.761l-2.783,9.122-4.368,14.261-.408,1.349a5.421,5.421,0,0,1-5.182,3.834h-69.4A4.89,4.89,0,0,0,44.8,58.765L43.237,63.9A4.874,4.874,0,0,0,47.9,70.2H127.2a8.155,8.155,0,0,0,7.8-5.761l2.783-9.122,4.776-15.631a5.414,5.414,0,0,1,5.16-3.812h69.4a4.89,4.89,0,0,0,4.668-3.448l1.563-5.14a4.874,4.874,0,0,0-4.668-6.295Z" transform="translate(931.928 2682.205)" fill="#d9d9de"/>
  </g>
</svg>
