<?xml version="1.0" encoding="utf-8"?>
<!-- Generator: Adobe Illustrator 25.0.0, SVG Export Plug-In . SVG Version: 6.00 Build 0)  -->
<svg version="1.1" id="Layer_1" xmlns="http://www.w3.org/2000/svg" xmlns:xlink="http://www.w3.org/1999/xlink" x="0px" y="0px"
	 viewBox="0 0 25 25" style="enable-background:new 0 0 25 25;" xml:space="preserve">
<style type="text/css">
	.st0{fill:#D90000;}
</style>
<path class="st0" d="M4,18.3h1.3c0.1,0,0.2,0.1,0.2,0.2v1.4h14.8V5.2H5.4v1.4c0,0.1-0.1,0.2-0.2,0.2H4c-0.1,0-0.2-0.1-0.2-0.2V4.3
	c0-0.4,0.3-0.7,0.7-0.7h16.6c0.4,0,0.7,0.3,0.7,0.7v16.6c0,0.4-0.3,0.7-0.7,0.7H4.5c-0.4,0-0.7-0.3-0.7-0.7v-2.3
	C3.8,18.4,3.9,18.3,4,18.3z M3.7,11.7H11V9.9c0-0.2,0.2-0.2,0.3-0.1l3.3,2.6c0,0,0,0,0.1,0.1v0.1v0.1c0,0,0,0-0.1,0.1l-3.3,2.6
	c-0.1,0.1-0.3,0-0.3-0.1v-1.8H3.7c-0.1,0-0.2-0.1-0.2-0.2V12C3.5,11.8,3.6,11.7,3.7,11.7z"/>
</svg>
