<?xml version="1.0" encoding="utf-8"?>
<!-- Generator: Adobe Illustrator 25.0.0, SVG Export Plug-In . SVG Version: 6.00 Build 0)  -->
<svg version="1.1" id="Layer_1" xmlns="http://www.w3.org/2000/svg" xmlns:xlink="http://www.w3.org/1999/xlink" x="0px" y="0px"
	 viewBox="0 0 124 40" style="enable-background:new 0 0 124 40;" xml:space="preserve">
<style type="text/css">
	.st0{fill-rule:evenodd;clip-rule:evenodd;fill:#FFFFFF;}
	.st1{fill-rule:evenodd;clip-rule:evenodd;fill:#D90000;}
</style>
<path class="st0" d="M103.3,2c2,0.1,4,0.3,5.9,1c1.2,0.4,2.2,1,3,2c1,1.3,1.3,2.9,1,4.5c-0.1,0.3-0.1,0.6-0.2,0.9
	c0,0.1-0.1,0.3-0.1,0.4v0.1c0,0.1,0,0.1,0,0.2c-0.1,0.7-0.5,1.1-1.2,1.1s-1.5,0-2.2,0c-0.4,0-0.7,0-1.1,0c-0.2,0-0.4,0-0.6,0
	c-0.5,0-1,0-1.5,0c-0.2,0-0.3-0.1-0.5-0.2c0,0,0.1-0.3,0.2-0.4c0.3-0.4,0.3-1.4,0.1-1.9c-0.6-1.5-1.9-1.8-3.3-2
	c-2.9-0.4-5.7-0.3-8.6,0.4c-1.4,0.3-2.6,1-3.5,2.1c-0.5,0.6-0.9,1.2-0.8,2c0,0.7,0.4,1.3,1.1,1.4c0.8,0.2,1.6,0.3,2.4,0.3
	c1.3,0.1,2.6,0.2,3.8,0.2c0.8,0,1.5,0.1,2.3,0.1c0.2,0,0.5,0,0.7,0c1.1,0.1,2.1,0.1,3.2,0.2c0.2,0,0.3,0,0.5,0
	c1.2,0.1,2.4,0.2,3.5,0.6c2,0.7,3.1,2.3,3.3,4.3c0.3,2.1-0.2,4.1-1,6.1c0,0.1-0.1,0.2-0.1,0.4c-0.1,0.2-0.1,0.3-0.2,0.5
	c-0.6,1.7-1.7,2.9-3.1,3.9c-2,1.5-4.3,2.2-6.7,2.4c-1.5,0.1-3,0.2-4.4,0.3c-0.7,0-1.3,0.1-2,0.1c0-0.1,0-0.1,0-0.2l0,0
	c-0.4,0-0.9,0-1.3,0c-1,0-2,0-3,0c-2.4-0.1-4.7-0.3-6.9-1.1c-1.1-0.4-2-0.9-2.7-1.8c-0.6-0.7-0.8-1.4-0.8-2.4l0,0
	c0-1.2,0.1-2.4,0.5-3.6c0.5-1.4,0.6-1.4,1.4-1.3c0.1,0,0.3,0,0.4,0c1.2,0,2.4,0,3.6,0c0.5,0,0.9,0,1.4,0s0.5,0.1,0.4,0.5
	c-0.1,0.3-0.2,0.7-0.2,1c-0.2,0.8,0.3,1.6,1.2,1.9c0.8,0.3,1.7,0.5,2.6,0.5c2.1,0.1,4.2,0.1,6.3,0.1c1.5,0,3.1-0.1,4.5-0.8
	c1.4-0.6,2.3-1.7,2.6-3.2c0.2-0.8-0.3-1.7-1.1-1.9c-0.8-0.2-1.7-0.4-2.5-0.5c-1.3-0.1-2.7-0.2-4-0.3c-1.4-0.1-2.8-0.2-4.2-0.3
	c-1.8-0.1-3.5-0.3-5.2-0.8c-1.6-0.5-2.8-1.3-3.4-3c-0.2-0.4-0.3-1.2-0.3-1.7c0.1-0.8,0.1-1.3,0.3-2.1c1.1-4.7,3.8-7.9,8.5-9.4
	c1.8-0.6,3.7-0.9,5.6-1C99,2,101.1,2,103.3,2z M79.5,6.5c-0.2-1.2-0.6-2.3-1.6-3C77,2.9,76,2.7,75,2.7c-5.5,0-11,0-16.4,0
	c-2,0-4.1,0-6.1,0c-0.8,0-0.9,0.1-1.2,0.8c-0.8,2.3-1.6,4.7-2.3,7l-0.1,0.2c-1.2,3.7-2.5,7.5-3.7,11.2c-0.4,1.2-0.8,2.4-1.2,3.6
	s-0.8,2.4-1.2,3.7c-0.1,0.2-0.1,0.3-0.2,0.5c-0.2,0.6-0.4,1.2-0.6,1.8c-0.1,0.3-0.1,0.4,0.1,0.6c0.2,0.1,0.5,0.3,0.7,0.3
	c7.7,0,15.4,0,23.1,0c0.7,0,1.4,0,2.1-0.1c1.7-0.2,3.3-0.7,4.7-1.8c0.8-0.6,1.5-1.4,2-2.3c0.3-0.7,0.6-1.5,0.9-2.3
	c0.5-1.4,0.9-2.8,0.8-4.3c-0.1-2.3-1.5-3.8-3.8-4.2c-0.1,0-0.2,0-0.3-0.1h-0.1v-0.1v-0.1h0.1c0.1,0,0.1,0,0.2,0
	c1.5-0.1,2.8-0.6,3.9-1.5c0.6-0.5,1.2-1.1,1.6-1.8c0.3-0.4,0.4-0.8,0.5-1.3c0.1-0.2,0.1-0.3,0.2-0.5C79.3,10.3,79.7,8.4,79.5,6.5z
	 M37.6,17.1c2.7-0.5,4.7-1.8,5.7-4.5c0.7-1.8,1.3-3.7,1.1-5.7C44.3,5.7,44,4.5,43,3.7c-0.9-0.8-2-1-3.1-1c-5.5,0-11,0-16.5,0
	c-2,0-4,0-6,0c-0.9,0-1,0.1-1.3,0.9c-0.6,1.8-1.2,3.6-1.8,5.4l0,0c-0.8,2.3-1.5,4.6-2.3,6.9c-0.7,2.2-1.8,4.8-2.8,7.3
	c-1.1,2.6-2.1,5.1-2.9,7.4l0.4,2.6c4,0,8.3-0.2,12.6-0.4l0,0c4.1-0.2,8.2-0.4,12-0.4c0.9,0,1.9-0.1,2.8-0.3c2.1-0.4,3.9-1.5,5.1-3.4
	c0.4-0.7,0.7-1.5,1-2.3c0-0.1,0.1-0.3,0.1-0.4c0.5-1.4,0.9-2.7,0.9-4.2c-0.1-2.4-1.4-4-3.8-4.4c-0.1,0-0.2,0-0.3-0.1H37v-0.1
	c0.1,0,0.1,0,0.2,0l0,0C37.3,17.1,37.4,17.1,37.6,17.1z"/>
<path class="st1" d="M118.4,10.6c0.1,0.2,0.1,0.5,0.2,1.1c0,0.8,0,0.9,0,1.4c0,0.1-0.1,0.3-0.1,0.4c-0.1,0.3-0.1,0.6-0.2,0.9
	c0,0.2-0.1,0.3-0.1,0.5c-0.2,0.8-0.4,1.5-0.7,2.3c-0.3,0.7-0.8,1.1-1.7,1.1c-0.6,0-1.2,0-1.8,0c-0.2,0-0.4,0-0.7,0
	c-0.1,0-0.1,0-0.2,0s-0.1,0-0.2,0c0,0.1,0.1,0.1,0.1,0.1c0.1,0.1,0.1,0.1,0.2,0.2c0.2,0.2,0.3,0.4,0.5,0.6c0.4,0.4,0.7,0.9,1.1,1.4
	c1.3,1.9,1.6,4,1.4,6.1c-0.4,4.6-2.5,8.1-6.5,10.3c-2.6,1.4-5.3,2.2-8.2,2.4c-0.3,0-0.6,0.1-0.9,0.1c-0.1,0-0.3,0-0.4,0.1H92h-0.1
	c-0.1,0-0.2,0-0.3-0.1c-2-0.2-3.9-0.5-5.8-1.2c-2.7-0.9-5-2.5-6.6-4.9l-0.1-0.1c0,0,0,0-0.1,0c-0.1,0.2-0.2,0.4-0.3,0.6
	c-0.2,0.4-0.4,0.8-0.7,1.1c-1.7,2.4-4,3.7-7,3.7c-5,0-10,0-15,0c-2,0-4.1,0-6.1,0c-0.4,0-0.8,0-1.2,0c-0.9,0-1.8,0-2.7,0
	s-1.7-0.3-2.3-0.9c-0.2-0.3-0.5-0.5-0.8-0.8c-0.2-0.2-0.4-0.3-0.5-0.5c-0.2-0.2-0.3-0.2-0.5,0c-1.7,1.6-3.8,2.2-6.2,2.2
	c-4.7,0-9.4,0-14.1,0c-1.9,0-3.7,0-5.6,0c-0.5,0-1,0-1.5,0c-0.9,0-1.8,0-2.7,0c-0.5,0-0.9-0.1-1.2-0.4c-0.6-0.5-1.2-1.1-1.8-1.6
	C8,36,7.3,35.3,6.5,34.6c-0.2-0.1-0.3-0.3-0.5-0.4c-0.5-0.5-1.1-0.9-1.4-1.6l0,0c0-0.1,0-0.1-0.1-0.2l0,0c0-0.1,0-0.2,0-0.4
	c0-0.2,0.1-0.3,0.1-0.5v-0.1c0.5-1.5,1-3.1,1.5-4.6c0.2-0.5,0.3-1,0.5-1.5c0.4-1.4,0.9-2.7,1.3-4.1c2-5.9,3.9-11.8,5.9-17.8
	C14.6,3,14.7,2.6,15,2.2c0.4-0.6,0.9-0.9,1.6-0.9h0.1c0.3,0,0.6,0,0.9,0c2,0,4,0,5.9,0c5.6,0,11.2,0,16.8,0c2.1,0,3.9,0.7,5.2,2.3
	c0.6,0.7,1.1,1.4,1.7,2.1c0.3,0.3,0.5,0.7,0.8,1c0.1,0.1,0.1,0.1,0.2,0.2c0,0,0.1,0.1,0.1,0.2c0-0.1,0.1-0.1,0.1-0.2
	s0.1-0.2,0.1-0.2c0.4-1.3,0.8-2.5,1.2-3.8c0.4-1.2,1-1.6,2.2-1.6c1.4,0,2.8,0,4.2,0c3.7,0,7.4,0,11.2,0c1.6,0,3.3,0,4.9,0
	c1.2,0,2.3,0,3.5,0c2.1,0,3.8,0.8,5.1,2.4c0.5,0.6,0.9,1.2,1.4,1.7c0.2,0.3,0.4,0.5,0.6,0.8C83,6.3,83,6.4,83.1,6.5l0.1,0.1
	c0,0,0.1,0,0.1-0.1l0.1-0.1C85.6,3.6,88.5,2,92,1.2c3.8-0.9,7.6-1.1,11.4-0.8c2.3,0.2,4.5,0.4,6.7,1c4.5,1.4,7.2,4.4,8.2,9
	C118.3,10.5,118.4,10.6,118.4,10.6z M39.8,2.7c-3.1,0-6.2,0-9.3,0H17.2c-0.8,0-0.9,0.1-1.2,0.8c-0.8,2.3-1.6,4.7-2.3,7
	c-1.3,3.8-2.5,7.6-3.8,11.5c-0.4,1.2-0.8,2.4-1.2,3.5C8.4,26.8,8,28,7.6,29.2c-0.1,0.2-0.1,0.3-0.2,0.5c-0.2,0.6-0.4,1.2-0.6,1.8
	c-0.1,0.3-0.1,0.4,0.1,0.6c0.2,0.1,0.5,0.3,0.7,0.3c3.6,0,19.8,0,23.1,0c0.4,0,0.7,0,1.1,0c0.1,0,0.2,0,0.4,0s0.4,0,0.6,0
	c0.7-0.1,1.3-0.2,2-0.4c1.6-0.5,3.1-1.3,4.1-2.7c0.2-0.2,0.4-0.5,0.5-0.8c0.4-0.6,0.6-1.3,0.9-2c0-0.1,0.1-0.3,0.1-0.4
	c0.5-1.4,0.9-2.7,0.9-4.2c-0.1-2.4-1.4-4-3.8-4.4c-0.1,0-0.2,0-0.3-0.1h-0.1v-0.1h0.1h0.1c0.1,0,0.3,0,0.4,0h0.1c0,0,0,0,0.1,0
	c0.8-0.1,1.5-0.4,2.2-0.7c1.1-0.5,2-1.3,2.7-2.4l0,0c0,0,0,0,0-0.1c0.2-0.3,0.3-0.6,0.4-0.9c0,0,0,0,0-0.1s0.1-0.2,0.1-0.3
	c0.7-1.8,1.3-3.7,1.1-5.7C44.3,5.9,44,4.7,43,3.9C42.1,2.9,41,2.7,39.8,2.7L39.8,2.7L39.8,2.7L39.8,2.7z M76.3,15.6
	c0.6-0.5,1.2-1.1,1.6-1.8c0.3-0.4,0.4-0.8,0.5-1.3c0.1-0.2,0.1-0.3,0.2-0.5c0.7-1.8,1.1-3.6,0.8-5.5c-0.2-1.2-0.6-2.3-1.6-3
	C77,2.9,76,2.7,75,2.7c-5.6,0-11.2,0-16.8,0c-1.9,0-3.8,0-5.7,0c-0.8,0-0.9,0.1-1.2,0.8c-0.8,2.3-1.6,4.7-2.3,7l-0.3,0.8
	c-1.2,3.6-2.4,7.1-3.5,10.7c-0.4,1.2-0.8,2.4-1.2,3.5c-0.4,1.2-0.8,2.5-1.2,3.7c-0.1,0.2-0.1,0.3-0.2,0.5c-0.2,0.6-0.4,1.2-0.6,1.8
	c-0.1,0.3-0.1,0.4,0.1,0.6c0.2,0.1,0.5,0.3,0.7,0.3c7.7,0,15.4,0,23.1,0c0.7,0,1.4,0,2.1-0.1c1.7-0.2,3.3-0.7,4.7-1.8
	c0.8-0.6,1.5-1.4,2-2.3c0.3-0.7,0.6-1.5,0.9-2.3c0.5-1.4,0.9-2.8,0.8-4.3c-0.1-2.3-1.5-3.8-3.8-4.2c-0.1,0-0.2,0-0.3-0.1h-0.1
	c0,0,0,0,0-0.1l0,0h0.1c0.1,0,0.1,0,0.2,0C73.8,17,75.2,16.5,76.3,15.6z M113,10.4c0.1-0.3,0.2-0.6,0.2-0.9c0.3-1.6,0-3.1-1-4.5
	c-0.8-1-1.8-1.5-3-2c-1.9-0.7-3.9-0.9-5.9-1c-2.2,0-4.3,0-6.5,0.1c-1.9,0.1-3.8,0.4-5.6,1c-4.7,1.5-7.4,4.7-8.5,9.4l0,0
	c-0.2,0.8-0.4,1.7-0.3,2.6c0,0.4,0.1,0.8,0.3,1.2c0.6,1.6,1.8,2.5,3.4,3c1.7,0.5,3.5,0.6,5.2,0.8c1.4,0.1,2.8,0.2,4.2,0.3
	c1.3,0.1,2.7,0.2,4,0.3c0.9,0.1,1.7,0.2,2.5,0.5c0.8,0.2,1.3,1.1,1.1,1.9c-0.3,1.5-1.2,2.6-2.6,3.2s-3,0.8-4.5,0.8
	c-2.1,0-4.2,0-6.3-0.1c-0.9,0-1.8-0.3-2.6-0.5c-0.9-0.3-1.4-1.1-1.2-1.9c0.1-0.3,0.1-0.7,0.2-1c0.1-0.5,0.1-0.5-0.4-0.5
	c-0.4,0-0.9,0-1.3,0c-1.2,0-2.5,0-3.7,0c-0.2,0-0.3,0-0.4,0c-0.8,0-0.9,0-1.4,1.3c-0.4,1.2-0.4,2.4-0.5,3.6l0,0c0,1,0.3,1.7,0.8,2.4
	c0.7,0.9,1.7,1.4,2.7,1.8c2.2,0.8,4.6,1,6.9,1.1c1,0.1,2,0,3,0c0.4,0,0.9,0,1.3,0c1-0.3,1.9-0.3,2.8-0.3c1.2,0,2.4,0,3.6-0.1
	c2.4-0.2,4.7-0.9,6.7-2.4c1.4-1,2.6-2.2,3.1-3.9c0.1-0.2,0.1-0.3,0.2-0.5c0.1-0.1,0.1-0.2,0.1-0.4c0.7-2,1.2-4,1-6.1
	c-0.3-2.1-1.3-3.6-3.3-4.3c-1.1-0.4-2.3-0.5-3.5-0.6c-0.2,0-0.4,0-0.5-0.1c-1.1-0.1-2.1-0.2-3.2-0.2c-0.2,0-0.5,0-0.7,0
	c-0.8,0-1.5-0.1-2.3-0.1c-1.3-0.1-2.6-0.1-3.8-0.2c-0.8-0.1-1.6-0.2-2.4-0.3c-0.7-0.1-1.1-0.7-1.1-1.4c0-0.8,0.3-1.4,0.8-2
	c1-1.1,2.1-1.7,3.5-2.1c2.8-0.7,5.7-0.8,8.6-0.4c1.3,0.2,2.6,0.5,3.3,2c0.2,0.4,0.2,1.4-0.1,1.9c-0.1,0.1-0.2,0.3-0.2,0.4
	c0.1,0.1,0.3,0.2,0.5,0.2c0.5,0,1,0,1.5,0c0.2,0,0.4,0,0.6,0c0.4,0,0.7,0,1.1,0c0.8,0,1.5,0,2.2,0s1.1-0.4,1.2-1.1
	c0-0.1,0-0.1,0-0.2V11C112.9,10.6,112.9,10.5,113,10.4z M61.7,13.9H60c-1.7,0-3.3,0-5,0c-0.5,0-0.8-0.3-0.6-0.8
	c0.5-1.5,0.9-3.1,1.4-4.6c0.1-0.2,0.5-0.4,0.8-0.5c0.2-0.1,0.4-0.1,0.6,0c0.1,0,0.2,0,0.2,0c0.8,0,1.6,0,2.4,0l0,0l0,0
	c3.2,0,6.4,0,9.6,0c0.6,0,1.1,0.1,1.7,0.2c0.5,0.1,0.7,0.5,1,0.8c0.6,0.9,0.4,1.7,0,2.5c-0.5,1.1-1.4,1.8-2.6,2.2
	c-0.5,0.1-1,0.2-1.5,0.2c-1.5,0-3.1,0-4.7,0C62.8,13.9,62.3,13.9,61.7,13.9L61.7,13.9z M26.6,13.9h-1.8c-1.6,0-3.3,0-4.9,0
	c-0.5,0-0.8-0.3-0.6-0.8c0.5-1.6,0.9-3.1,1.5-4.7C20.7,8.3,21,8.1,21.2,8c0.1,0,0.1-0.1,0.2-0.1s0.2,0,0.3,0h0.1c0.9,0,1.7,0,2.6,0
	c3.3,0,6.6,0,9.9,0c0.6,0,1.2,0.1,1.7,0.3c0.3,0.1,0.5,0.3,0.7,0.6c0.7,0.9,0.7,1.8,0.2,2.8c-0.8,1.6-2.1,2.3-3.8,2.3
	c-1.5,0-3.1,0-4.6,0l0,0l0,0l0,0C27.9,13.9,27.2,13.9,26.6,13.9L26.6,13.9z M23,25.9h-6.8c-0.6,0-0.9-0.3-0.7-0.9
	c0.4-1.5,0.9-2.9,1.4-4.4c0.1-0.4,0.5-0.6,0.9-0.7c0.1,0,0.3,0,0.4,0h0.1h2.2c3.6,0,7.2,0,10.8,0c0.5,0,1,0.1,1.4,0.2
	c0.5,0.1,0.8,0.4,1.1,0.9c0.4,0.6,0.4,1.2,0.3,1.9c-0.2,0.8-0.7,1.5-1.4,2c-0.9,0.7-1.9,1-3,1c-1.6,0-3.2,0-4.8,0l0,0l0,0l0,0
	C24.3,25.9,23.7,25.9,23,25.9L23,25.9z M56.5,26h1.7l0,0c0.7,0,1.3,0,2,0l0,0l0,0c1.6,0,3.2,0,4.7,0c1.4,0,2.6-0.5,3.5-1.5
	c0.8-0.9,1.3-1.9,0.6-3.2c-0.3-0.6-0.6-0.9-1.3-1c-0.1,0-0.1,0-0.2,0l0,0C67.2,20,66.8,20,66.4,20c-3.6,0-7.3,0-10.9,0l0,0h-2h-0.1
	c-0.1,0-0.3,0-0.4,0c-0.4,0.1-0.8,0.3-1,0.7c-0.5,1.5-0.9,3-1.4,4.5c-0.1,0.5,0.2,0.8,0.6,0.8C53,25.9,54.7,25.9,56.5,26z"/>
</svg>
