<svg xmlns="http://www.w3.org/2000/svg" width="40" height="40" viewBox="0 0 40 40">
  <g id="Mail" transform="translate(-326 -8097)">
    <rect id="Rechteck_275" data-name="Rechteck 275" width="40" height="40" transform="translate(326 8097)" fill="none"/>
    <g id="Gruppe_310" data-name="Gruppe 310" transform="translate(331.001 8105.215)">
      <path id="Pfad_551" data-name="Pfad 551" d="M1.5,8.67V20.926a4.285,4.285,0,0,0,4.285,4.285H27.212A4.285,4.285,0,0,0,31.5,20.926V8.67L18.744,16.516a4.285,4.285,0,0,1-4.491,0Z" transform="translate(-1.5 -1.642)" fill="#2b2b30"/>
      <path id="Pfad_552" data-name="Pfad 552" d="M31.5,8.261V8.035A4.285,4.285,0,0,0,27.212,3.75H5.785A4.285,4.285,0,0,0,1.5,8.035v.226L15.376,16.8a2.143,2.143,0,0,0,2.246,0Z" transform="translate(-1.5 -3.75)" fill="#2b2b30"/>
    </g>
  </g>
</svg>
