<svg xmlns="http://www.w3.org/2000/svg" width="40" height="40" viewBox="0 0 40 40">
  <g id="montage" transform="translate(-162 -1846)">
    <rect id="Rechteck_258" data-name="Rechteck 258" width="40" height="40" transform="translate(162 1846)" fill="none"/>
    <path id="Pfad_545" data-name="Pfad 545" d="M17.5,9.5A8,8,0,0,1,27.826,1.844a1.143,1.143,0,0,1,.477,1.9L23.243,8.8A3.432,3.432,0,0,0,26.2,11.759L31.258,6.7a1.143,1.143,0,0,1,1.9.477,8,8,0,0,1-8.34,10.3c-1.552-.131-2.85.152-3.519.966L10.4,31.677A5.026,5.026,0,1,1,3.326,24.6L16.561,13.7c.812-.671,1.1-1.968.966-3.519Q17.5,9.843,17.5,9.5ZM5.486,28.362a1.143,1.143,0,0,1,1.143-1.143h.012a1.143,1.143,0,0,1,1.143,1.143v.012a1.143,1.143,0,0,1-1.143,1.143H6.629a1.143,1.143,0,0,1-1.143-1.143Z" transform="translate(164.496 1848.501)" fill="#2b2b30" fill-rule="evenodd"/>
  </g>
</svg>
