<svg xmlns="http://www.w3.org/2000/svg" width="40" height="40" viewBox="0 0 40 40">
  <g id="Phone" transform="translate(-326 -8097)">
    <rect id="Rechteck_275" data-name="Rechteck 275" width="40" height="40" transform="translate(326 8097)" fill="none"/>
    <path id="Pfad_554" data-name="Pfad 554" d="M1.5,5.786A4.286,4.286,0,0,1,5.786,1.5h1.96a2.68,2.68,0,0,1,2.6,2.029l1.579,6.319a2.679,2.679,0,0,1-.991,2.793L9.084,14.026a.447.447,0,0,0-.18.5A16.121,16.121,0,0,0,18.471,24.1a.447.447,0,0,0,.5-.18l1.386-1.847a2.679,2.679,0,0,1,2.793-.991l6.319,1.579a2.681,2.681,0,0,1,2.029,2.6v1.959A4.286,4.286,0,0,1,27.214,31.5H24A22.5,22.5,0,0,1,1.5,9Z" transform="translate(329.5 8099.875)" fill="#2b2b30" fill-rule="evenodd"/>
  </g>
</svg>
