<svg xmlns="http://www.w3.org/2000/svg" width="40" height="40" viewBox="0 0 40 40">
  <g id="style" transform="translate(-162 -1846)">
    <rect id="Rechteck_258" data-name="Rechteck 258" width="40" height="40" transform="translate(162 1846)" fill="none"/>
    <g id="Gruppe_278" data-name="Gruppe 278" transform="translate(166.019 1850.019)">
      <path id="Pfad_546" data-name="Pfad 546" d="M2.25,5.338A3.089,3.089,0,0,1,5.338,2.25h8.648a3.089,3.089,0,0,1,3.088,3.088V26.957a7.412,7.412,0,0,1-14.824,0ZM9.662,28.811a1.853,1.853,0,1,0-1.853-1.853A1.853,1.853,0,0,0,9.662,28.811Z" transform="translate(-2.25 -2.25)" fill="#2b2b30" fill-rule="evenodd"/>
      <path id="Pfad_547" data-name="Pfad 547" d="M10.719,33.083H25.8a3.088,3.088,0,0,0,3.088-3.088V21.347A3.089,3.089,0,0,0,25.8,18.259H25.57l-14.4,14.4c-.148.147-.3.288-.451.423Zm3.326-6.795L24.708,15.625a3.088,3.088,0,0,0,0-4.367L18.594,5.142a3.088,3.088,0,0,0-4.367,0l-.165.163V25.671c0,.208,0,.413-.016.618Z" transform="translate(3.231 -0.963)" fill="#2b2b30"/>
    </g>
  </g>
</svg>
